<svg width="86" height="34" viewBox="0 0 86 34" fill="none" xmlns="http://www.w3.org/2000/svg">
<path d="M42.7296 16.2289C42.1375 16.0011 41.363 15.9329 40.5203 15.9329H35.8281V14.4751H43.8913V11.9697H32.5255V22.8115H40.2242C41.2948 22.8115 42.0918 22.7205 42.6841 22.4926C43.9369 22.0142 44.7796 20.8526 44.7796 19.3266C44.7796 17.7779 43.9824 16.7073 42.7296 16.2289ZM41.0897 19.9871C40.9075 20.0555 40.6569 20.0782 40.3379 20.0782H35.8281V18.3472H40.3379C40.7025 18.3472 40.9985 18.3701 41.2264 18.4839C41.4996 18.6206 41.6363 18.8712 41.6363 19.1899C41.6363 19.5088 41.4769 19.8504 41.0897 19.9871Z" fill="#333333"/>
<path d="M54.0398 11.9697H49.2111L44.7696 22.8115H48.5051L49.12 21.2399H54.1309L54.7688 22.8115H58.4815L54.0398 11.9697ZM49.94 18.8482L51.5117 14.4751H51.7622L53.3338 18.8482H49.94Z" fill="#333333"/>
<path d="M62.7326 18.78V22.8115H59.4301V11.9696H62.7326V15.9328H68.0397V11.9696H71.3424V22.8115H68.0397V18.78H62.7326Z" fill="#333333"/>
<path d="M76.5701 18.7117V22.8115H73.2673V11.9696H76.5701V16.0467H77.4812L81.4672 11.9696H85.6124L80.3283 17.1628L85.8175 22.8115H81.4215L77.4812 18.7117H76.5701Z" fill="#333333"/>
<path d="M0 5H26.33V18.2421C26.33 21.6368 24.5191 24.7737 21.5793 26.4712L13.165 31.33L4.75071 26.4712C1.81093 24.7737 0 21.6368 0 18.2421V5Z" fill="#FFDD2D"/>
<path fill-rule="evenodd" clip-rule="evenodd" d="M7.22614 11.9696V16.0882C7.78933 15.4522 8.81332 15.0218 9.98412 15.0218H11.2565V19.8095C11.2565 21.0833 10.9104 22.1982 10.3969 22.8115H15.9312C15.4188 22.1976 15.0735 21.0841 15.0735 19.812V15.0218H16.3459C17.5167 15.0218 18.5407 15.4522 19.1039 16.0882V11.9696H7.22614Z" fill="#333333"/>
</svg>
